# xmcd
#
# Track frame offsets: 
#        150
#        13292
#        26472
#        37242
#        47127
#        57557
#        67957
#        80725
#        91395
#        101167
#        114777
#        126987
#
# Disc length: 1835 seconds
#
# Revision: 1
# Processed by: cddbd v1.5.2PL0 Copyright (c) Steve Scherf et al.
# Submitted via: ExactAudioCopy v0.99pb5
#
DISCID=a707290c
DTITLE=Merle Haggard - Swinging Doors And The Bottle Let Me Down
DYEAR=1900
DGENRE=Country
TTITLE0=Swinging Doors
TTITLE1=If I Could Be Him
TTITLE2=The Longer You Wait
TTITLE3=I'll Look Over You
TTITLE4=I Can't Stand Me
TTITLE5=The Girl Turned Ripe
TTITLE6=The Bottle Let Me Down
TTITLE7=No More You And Me
TTITLE8=Somebody Else You've Known
TTITLE9=High On A Hilltop
TTITLE10=This Town's Not Big Enough
TTITLE11=Shade Tree (Fix-It-Man)
EXTD=
EXTT0=
EXTT1=
EXTT2=
EXTT3=
EXTT4=
EXTT5=
EXTT6=
EXTT7=
EXTT8=
EXTT9=
EXTT10=
EXTT11=
PLAYORDER=
